<svg viewBox="0 0 120 300" width="180" height="450" fill="none" overflow="visible" style="overflow:visible" xmlns="http://www.w3.org/2000/svg" role="img" aria-label="Avatar joueur"><defs><linearGradient id="m41b" x1="0" y1="0" x2="0" y2="1"><stop offset="0" stop-color="#edccae"/><stop offset="1" stop-color="#c8a382"/></linearGradient><radialGradient id="m41e" cx="0.42" cy="0.36" r="0.75"><stop offset="0" stop-color="#ffffff"/><stop offset="0.34" stop-color="#a7906f"/><stop offset="1" stop-color="#634d2d"/></radialGradient><radialGradient id="m41ey" cx="0.42" cy="0.36" r="0.75"><stop offset="0" stop-color="#ffffff"/><stop offset="0.34" stop-color="#a7906f"/><stop offset="1" stop-color="#634d2d"/></radialGradient><filter id="m41g" x="-40%" y="-40%" width="180%" height="180%"><feGaussianBlur stdDeviation="2.2" result="b"/><feMerge><feMergeNode in="b"/><feMergeNode in="SourceGraphic"/></feMerge></filter><linearGradient id="m41m" x1="0" y1="0" x2="1" y2="0"><stop offset="0" stop-color="#efd1b6"/><stop offset="0.45" stop-color="#e8bd97"/><stop offset="1" stop-color="#ac8c70"/></linearGradient><radialGradient id="m41c" cx="0.5" cy="0.42" r="0.62"><stop offset="0" stop-color="#ffffff"/><stop offset="0.38" stop-color="#ad9779"/><stop offset="1" stop-color="#503e25"/></radialGradient><linearGradient id="m41sh" x1="0.2" y1="0" x2="0.8" y2="1"><stop offset="0" stop-color="#f2d9c3"/><stop offset="0.55" stop-color="#e8bd97"/><stop offset="1" stop-color="#ba9779"/></linearGradient><radialGradient id="m41v" cx="0.5" cy="0.34" r="0.85"><stop offset="0" stop-color="#303232"/><stop offset="1" stop-color="#0d1720"/></radialGradient><filter id="m41s" x="-50%" y="-50%" width="200%" height="200%"><feGaussianBlur stdDeviation="4"/></filter><clipPath id="m41ch"><rect x="18" y="26" width="84" height="86" rx="28"/></clipPath><clipPath id="m41cf"><ellipse cx="60" cy="68" rx="28.5" ry="46"/></clipPath><linearGradient id="m41hr" x1="0.25" y1="0" x2="0.75" y2="1"><stop offset="0" stop-color="#aeb1b7"/><stop offset="0.5" stop-color="#8b8f98"/><stop offset="1" stop-color="#5f6167"/></linearGradient><radialGradient id="m41st" cx="0.38" cy="0.3" r="0.78"><stop offset="0" stop-color="#fffdf2"/><stop offset="0.45" stop-color="#ffd873"/><stop offset="1" stop-color="#e8a020"/></radialGradient><linearGradient id="m41j" x1="0.15" y1="0" x2="0.85" y2="1"><stop offset="0" stop-color="#80756a"/><stop offset="0.5" stop-color="#4a3a2a"/><stop offset="1" stop-color="#372b1f"/></linearGradient><linearGradient id="m41t" x1="0.2" y1="0" x2="0.8" y2="1"><stop offset="0" stop-color="#b3aca6"/><stop offset="0.55" stop-color="#9a9188"/><stop offset="1" stop-color="#796d61"/></linearGradient><linearGradient id="m41tr" x1="0.15" y1="0" x2="0.85" y2="1"><stop offset="0" stop-color="#382c20"/><stop offset="0.5" stop-color="#292018"/><stop offset="1" stop-color="#1e1711"/></linearGradient></defs><ellipse cx="60" cy="292" rx="34" ry="6.5" fill="#000000" opacity="0.18"/><g data-part="root"><g transform="rotate(0 45 218.8)"><g data-part="legLeft"><path d="M32.5 210.8 Q45.0 205.8 57.5 210.8 C57.0 246.8 55.5 246.8 55.5 276.0 L34.5 276.0 C34.5 246.8 33.0 246.8 32.5 210.8 Z" fill="url(#m41tr)" stroke="#303337" stroke-width="3" stroke-linejoin="round"/><path d="M38.1 216.8 L39.2 270.0" stroke="#ffffff" stroke-width="4" opacity=".16" stroke-linecap="round"/><path d="M55.5 214.8 L53.5 272.0" stroke="#211a12" stroke-width="3.6" opacity=".32" stroke-linecap="round"/><path d="M34.5 246.8 Q45.0 251.8 55.5 246.8" fill="none" stroke="#231b14" stroke-width="2" opacity=".5"/><path d="M34.5 269.0 L55.5 269.0" stroke="#1f1811" stroke-width="2.2" opacity=".55"/><ellipse cx="45" cy="278" rx="16" ry="6.5" fill="#1c1610" stroke="#303337" stroke-width="2.6"/><ellipse cx="45" cy="281" rx="16" ry="2.8" fill="#303337" opacity=".5"/></g></g><g transform="rotate(0 75 218.8)"><g data-part="legRight"><path d="M62.5 210.8 Q75.0 205.8 87.5 210.8 C87.0 246.8 85.5 246.8 85.5 276.0 L64.5 276.0 C64.5 246.8 63.0 246.8 62.5 210.8 Z" fill="url(#m41tr)" stroke="#303337" stroke-width="3" stroke-linejoin="round"/><path d="M68.1 216.8 L69.2 270.0" stroke="#ffffff" stroke-width="4" opacity=".16" stroke-linecap="round"/><path d="M64.5 214.8 L66.5 272.0" stroke="#211a12" stroke-width="3.6" opacity=".32" stroke-linecap="round"/><path d="M64.5 246.8 Q75.0 251.8 85.5 246.8" fill="none" stroke="#231b14" stroke-width="2" opacity=".5"/><path d="M64.5 269.0 L85.5 269.0" stroke="#1f1811" stroke-width="2.2" opacity=".55"/><ellipse cx="75" cy="278" rx="16" ry="6.5" fill="#1c1610" stroke="#303337" stroke-width="2.6"/><ellipse cx="75" cy="281" rx="16" ry="2.8" fill="#303337" opacity=".5"/></g></g><g data-part="torso"><path d="M40 115.84 Q60 97.84 80 115.84 L78 127.84 Q60 113.84 42 127.84 Z" fill="#a2846a" stroke="#303337" stroke-width="3.6" stroke-linejoin="round"/><defs><clipPath id="m41ct"><path d="M60 113.84 C80.535 113.84 87.38 127.84 87.38 164.32 L84.38 200.8 Q82.38 218.8 68.38 218.8 L51.620000000000005 218.8 Q37.620000000000005 218.8 35.620000000000005 200.8 L32.620000000000005 164.32 C32.620000000000005 127.84 39.465 113.84 60 113.84 Z"/></clipPath></defs><path d="M60 113.84 C80.535 113.84 87.38 127.84 87.38 164.32 L84.38 200.8 Q82.38 218.8 68.38 218.8 L51.620000000000005 218.8 Q37.620000000000005 218.8 35.620000000000005 200.8 L32.620000000000005 164.32 C32.620000000000005 127.84 39.465 113.84 60 113.84 Z" fill="#eef1f6" stroke="#303337" stroke-width="3" stroke-linejoin="round"/><g clip-path="url(#m41ct)"><ellipse cx="80.535" cy="218.8" rx="31.486999999999995" ry="83.96800000000002" fill="#656970" opacity=".3" filter="url(#m41s)"/><ellipse cx="47.679" cy="134.832" rx="13.69" ry="23.0912" fill="#ffffff" opacity=".45" filter="url(#m41s)"/></g><g clip-path="url(#m41ct)"><path d="M51.8 114.8 Q37.5 119.1 32.1 145.3" fill="none" stroke="#b9c3d2" stroke-width="2.2" opacity=".8"/></g><g clip-path="url(#m41ct)"><path d="M68.2 114.8 Q82.5 119.1 87.9 145.3" fill="none" stroke="#b9c3d2" stroke-width="2.2" opacity=".8"/></g><g clip-path="url(#m41ct)"><path d="M35.4 124.3 C32.6 166.3 34.8 218.8 37.5 224.8 L82.5 224.8 C85.2 218.8 87.4 166.3 84.6 124.3 C73.7 115.9 46.3 115.9 35.4 124.3 Z" fill="url(#m41j)" stroke="#303337" stroke-width="2.8" stroke-linejoin="round"/></g><g clip-path="url(#m41ct)"><path d="M48.7 111.8 C50.0 132.7 52.6 159.0 55.3 168.4 L55.3 228.8 L64.7 228.8 L64.7 168.4 C67.4 159.0 70.0 132.7 71.3 111.8 Z" fill="#eef1f6" stroke="#303337" stroke-width="2.6" stroke-linejoin="round"/></g><g clip-path="url(#m41ct)"><path d="M48.7 111.8 C50.0 132.7 52.6 159.0 55.3 168.4 L52.7 171.6 C48.7 160.0 46.2 132.7 45.2 111.8 Z" fill="#675a4c" stroke="#292017" stroke-width="1.6" stroke-linejoin="round"/></g><g clip-path="url(#m41ct)"><path d="M71.3 111.8 C70.0 132.7 67.4 159.0 64.7 168.4 L67.3 171.6 C71.3 160.0 73.8 132.7 74.8 111.8 Z" fill="#675a4c" stroke="#292017" stroke-width="1.6" stroke-linejoin="round"/></g><g clip-path="url(#m41ct)"><circle cx="70.2" cy="176.8" r="2.8" fill="#34291d" stroke="#292017" stroke-width="1.3"/></g><g clip-path="url(#m41ct)"><circle cx="70.2" cy="189.4" r="2.8" fill="#34291d" stroke="#292017" stroke-width="1.3"/></g><g clip-path="url(#m41ct)"><circle cx="70.2" cy="202.0" r="2.8" fill="#34291d" stroke="#292017" stroke-width="1.3"/></g><g clip-path="url(#m41ct)"><path d="M48.7 111.8 L53.5 130.6 L53.7 134.8 Z" fill="#eef1f6" stroke="#303337" stroke-width="2"/><path d="M71.3 111.8 L66.5 130.6 L66.3 134.8 Z" fill="#eef1f6" stroke="#303337" stroke-width="2"/></g><g clip-path="url(#m41ct)"><ellipse cx="46.857600000000005" cy="129.84" rx="10" ry="6" fill="#ffffff" opacity=".16"/></g></g><g transform="rotate(8 24.620000000000005 135.84)"><g data-part="armLeft"><path d="M46.1 133.8 C46.1 118.8 12.1 119.8 12.1 132.8 C13.6 165.1 15.1 183.8 15.1 196.8 L34.1 196.8 C34.1 183.8 38.6 165.1 46.1 133.8 Z" fill="#eef1f6" stroke="#303337" stroke-width="3" stroke-linejoin="round"/><path d="M17.7 131.8 C16.9 165.1 18.9 180.8 19.4 188.8" fill="none" stroke="#ffffff" stroke-width="4.5" opacity=".2" stroke-linecap="round"/><path d="M38.1 141.8 C35.1 165.1 33.6 183.8 33.6 192.8" fill="none" stroke="#b9c3d2" stroke-width="4" opacity=".34" stroke-linecap="round"/><path d="M45.1 134.8 C41.1 149.8 37.6 159.1 36.6 165.1" fill="none" stroke="#b9c3d2" stroke-width="2.2" opacity=".75"/><rect x="13.6" y="189.8" width="22.0" height="10" rx="4" fill="#34291d" stroke="#303337" stroke-width="2.6"/><g data-part="handLeft"><path d="M16.1 199.8 q8.5 -4 17 0 q1.5 8 -0.5 13 q-8 5 -16 0 q-2 -5 -0.5 -13 Z" fill="url(#m41m)" stroke="#303337" stroke-width="2.8" stroke-linejoin="round"/><path d="M32.6 202.8 q4.5 3 1.5 7" fill="url(#m41m)" stroke="#303337" stroke-width="2.6" stroke-linecap="round"/><path d="M19.1 207.8 q5.5 3 11 0" fill="none" stroke="#997d64" stroke-width="1.8" opacity=".7" stroke-linecap="round"/><ellipse cx="22.1" cy="202.3" rx="4" ry="2.6" fill="#ffffff" opacity=".26"/></g></g></g><g transform="rotate(-8 95.38 135.84)"><g data-part="armRight"><path d="M73.9 133.8 C73.9 118.8 107.9 119.8 107.9 132.8 C106.4 165.1 104.9 183.8 104.9 196.8 L85.9 196.8 C85.9 183.8 81.4 165.1 73.9 133.8 Z" fill="#eef1f6" stroke="#303337" stroke-width="3" stroke-linejoin="round"/><path d="M102.3 131.8 C103.1 165.1 101.1 180.8 100.6 188.8" fill="none" stroke="#ffffff" stroke-width="4.5" opacity=".2" stroke-linecap="round"/><path d="M81.9 141.8 C84.9 165.1 86.4 183.8 86.4 192.8" fill="none" stroke="#b9c3d2" stroke-width="4" opacity=".34" stroke-linecap="round"/><path d="M74.9 134.8 C78.9 149.8 82.4 159.1 83.4 165.1" fill="none" stroke="#b9c3d2" stroke-width="2.2" opacity=".75"/><rect x="84.4" y="189.8" width="22.0" height="10" rx="4" fill="#34291d" stroke="#303337" stroke-width="2.6"/><g data-part="handRight"><path d="M86.9 199.8 q8.5 -4 17 0 q1.5 8 -0.5 13 q-8 5 -16 0 q-2 -5 -0.5 -13 Z" fill="url(#m41m)" stroke="#303337" stroke-width="2.8" stroke-linejoin="round"/><path d="M87.4 202.8 q-4.5 3 -1.5 7" fill="url(#m41m)" stroke="#303337" stroke-width="2.6" stroke-linecap="round"/><path d="M89.9 207.8 q5.5 3 11 0" fill="none" stroke="#997d64" stroke-width="1.8" opacity=".7" stroke-linecap="round"/><ellipse cx="92.9" cy="202.3" rx="4" ry="2.6" fill="#ffffff" opacity=".26"/></g></g></g><g transform="translate(60 -5.1) scale(0.706 1.058) translate(-60 0)"><g data-part="head"><g data-part="earLeft"><ellipse cx="33" cy="73" rx="8.5" ry="11" fill="url(#m41sh)" stroke="#303337" stroke-width="2.4"/><path d="M32 67.5 q5.5 5 1 10.5" stroke="#9e8167" stroke-width="2.2" fill="none" stroke-linecap="round"/><path d="M35.5 80 q3 1.5 3.5 -2" stroke="#9e8167" stroke-width="1.8" fill="none" opacity=".7" stroke-linecap="round"/></g><g data-part="earRight"><ellipse cx="87" cy="73" rx="8.5" ry="11" fill="url(#m41sh)" stroke="#303337" stroke-width="2.4"/><path d="M88 67.5 q-5.5 5 -1 10.5" stroke="#9e8167" stroke-width="2.2" fill="none" stroke-linecap="round"/><path d="M84.5 80 q-3 1.5 -3.5 -2" stroke="#9e8167" stroke-width="1.8" fill="none" opacity=".7" stroke-linecap="round"/></g><ellipse data-shape="head" fill="url(#m41sh)" stroke="#303337" stroke-width="2.8" cx="60" cy="68" rx="28.5" ry="46"/><g clip-path="url(#m41cf)"><ellipse cx="94" cy="84" rx="34" ry="34" fill="#876e58" opacity=".32" filter="url(#m41s)"/><ellipse cx="42" cy="52" rx="20" ry="14" fill="#ffffff" opacity=".42" filter="url(#m41s)"/><ellipse cx="60" cy="104" rx="30" ry="12" fill="#8b715b" opacity=".2" filter="url(#m41s)"/></g><g clip-path="url(#m41cf)"><ellipse cx="36" cy="103" rx="13" ry="20" fill="#745f4c" opacity=".28" filter="url(#m41s)"/><ellipse cx="84" cy="103" rx="13" ry="20" fill="#745f4c" opacity=".28" filter="url(#m41s)"/><ellipse cx="60" cy="109" rx="9" ry="8" fill="#ffffff" opacity=".26" filter="url(#m41s)"/><path d="M46 98 Q60 113 74 98" fill="none" stroke="#745f4c" stroke-width="2" opacity=".16" filter="url(#m41s)"/></g><g data-part="crest"><g transform="translate(60 66) scale(0.78 1.09) translate(-60 -68)"><path d="M24 66 C20 40 36 20 60 20 C84 20 100 40 96 66 C92 50 84 44 60 44 C36 44 28 50 24 66 Z" fill="url(#m41hr)" stroke="#64676d" stroke-width="1.6" stroke-linejoin="round"/><path d="M34 40 C42 28 60 24 74 28 C60 30 44 36 38 48 Z" fill="#ffffff" opacity=".2"/><path d="M28 52 C38 46 82 46 92 52 C82 48 38 48 28 52 Z" fill="#64676d" opacity=".55"/><g transform="translate(0 26) scale(1 0.760) translate(0 -26)"><path d="M25 56 C36 38 84 38 95 56 L93 62 C82 48 38 48 27 62 Z" fill="#a5a8af" opacity=".8"/><path d="M23.0 29 C31.0 24 42.0 27 46.0 35 C39.0 34 32.0 38 29.0 50 C22.0 42 20.0 34 23.0 29 Z" fill="url(#m41hr)" stroke="#64676d" stroke-width="1.4" stroke-linejoin="round"/><path d="M26.0 31 C32.0 28 38.0 30 40.0 34 C33.0 34 29.0 39 28.0 45 Z" fill="#a5a8af" opacity=".45"/><path d="M36.0 29 C44.0 24 55.0 27 59.0 35 C52.0 34 45.0 38 42.0 50 C35.0 42 33.0 34 36.0 29 Z" fill="url(#m41hr)" stroke="#64676d" stroke-width="1.4" stroke-linejoin="round"/><path d="M39.0 31 C45.0 28 51.0 30 53.0 34 C46.0 34 42.0 39 41.0 45 Z" fill="#a5a8af" opacity=".45"/><path d="M49.0 29 C57.0 24 68.0 27 72.0 35 C65.0 34 58.0 38 55.0 50 C48.0 42 46.0 34 49.0 29 Z" fill="url(#m41hr)" stroke="#64676d" stroke-width="1.4" stroke-linejoin="round"/><path d="M52.0 31 C58.0 28 64.0 30 66.0 34 C59.0 34 55.0 39 54.0 45 Z" fill="#a5a8af" opacity=".45"/><path d="M62.0 29 C70.0 24 81.0 27 85.0 35 C78.0 34 71.0 38 68.0 50 C61.0 42 59.0 34 62.0 29 Z" fill="url(#m41hr)" stroke="#64676d" stroke-width="1.4" stroke-linejoin="round"/><path d="M65.0 31 C71.0 28 77.0 30 79.0 34 C72.0 34 68.0 39 67.0 45 Z" fill="#a5a8af" opacity=".45"/><path d="M75.0 29 C83.0 24 94.0 27 98.0 35 C91.0 34 84.0 38 81.0 50 C74.0 42 72.0 34 75.0 29 Z" fill="url(#m41hr)" stroke="#64676d" stroke-width="1.4" stroke-linejoin="round"/><path d="M78.0 31 C84.0 28 90.0 30 92.0 34 C85.0 34 81.0 39 80.0 45 Z" fill="#a5a8af" opacity=".45"/></g></g></g><path d="M56.0 56.0 C50.6 50.2 43.4 50.8 38.0 55.4 L38.0 57.4 C43.4 54.1 50.6 54.3 56.0 59.6 Z" fill="#7a7e86"/><path d="M64.0 56.0 C69.4 50.2 76.6 50.8 82.0 55.4 L82.0 57.4 C76.6 54.1 69.4 54.3 64.0 59.6 Z" fill="#7a7e86"/><g data-part="eyeLeft"><ellipse cx="47" cy="70" rx="8.5" ry="9.5" fill="#ffffff" stroke="#303337" stroke-width="1.4"/><circle cx="47" cy="70.7" r="5.1" fill="#453620"/><circle cx="47" cy="70.7" r="2.5" fill="#0c1420"/><circle cx="45.1" cy="68.0" r="1.4" fill="#ffffff"/><path d="M38 64.5 Q47 59.5 56 64.5" fill="none" stroke="#9e8167" stroke-width="2.2" opacity=".5" stroke-linecap="round"/></g><g data-part="eyeRight"><ellipse cx="73" cy="70" rx="8.5" ry="9.5" fill="#ffffff" stroke="#303337" stroke-width="1.4"/><circle cx="73" cy="70.7" r="5.1" fill="#453620"/><circle cx="73" cy="70.7" r="2.5" fill="#0c1420"/><circle cx="71.1" cy="68.0" r="1.4" fill="#ffffff"/><path d="M64 64.5 Q73 59.5 82 64.5" fill="none" stroke="#9e8167" stroke-width="2.2" opacity=".5" stroke-linecap="round"/></g><g clip-path="url(#m41cf)"><ellipse cx="66" cy="81" rx="6" ry="13" fill="#745f4c" opacity=".3" filter="url(#m41s)"/><ellipse cx="56" cy="78" rx="3.6" ry="10" fill="#ffffff" opacity=".3" filter="url(#m41s)"/><path d="M59 70.5 Q52.4 78.5 56.6 85.6 Q59.6 90.6 68.4 89.4 L67 84.4 Q61.4 80.4 62.6 71 Z" fill="#9e8167" opacity=".26"/></g><path d="M59 70.5 Q52.4 78.5 56.6 85.6 Q59.6 90.6 68.4 89.4" fill="none" stroke="#9e8167" stroke-width="2.8" opacity=".9" stroke-linecap="round"/><path d="M68.4 89.4 Q63 92.4 56.8 90.4" fill="none" stroke="#9e8167" stroke-width="2.4" opacity=".7" stroke-linecap="round"/><ellipse cx="55.8" cy="88.6" rx="1.4" ry="1" fill="#745f4c" opacity=".46"/><ellipse cx="64.2" cy="88.6" rx="1.4" ry="1" fill="#745f4c" opacity=".46"/><path d="M60 88.6 L60 91.6" stroke="#9e8167" stroke-width="1.7" opacity=".4" stroke-linecap="round"/><g stroke="#2c231a" stroke-width="2.4" fill="none"><ellipse cx="49" cy="71" rx="10" ry="8" fill="#ffffff" fill-opacity=".2"/><ellipse cx="71" cy="71" rx="10" ry="8" fill="#ffffff" fill-opacity=".2"/><path d="M59 70 Q60 73.5 61 70"/><path d="M80.5 75 Q91 90 85 104" stroke-width="1.6"/><path d="M43 66.5 Q47 63.5 52 64.5" stroke="#ffffff" stroke-width="2.2" opacity=".5"/></g><g data-part="mouth"><path d="M49.5 95 Q60 96.6 70.5 95" stroke="#915044" stroke-width="3.2" fill="none" stroke-linecap="round"/><path d="M54.2 98.6 Q60.0 102.0 65.8 98.6" stroke="#ffffff" stroke-width="2.2" fill="none" opacity=".28" stroke-linecap="round"/></g><g clip-path="url(#m41cf)"><ellipse cx="36" cy="86" rx="8" ry="5" fill="#e2706a" opacity=".2" filter="url(#m41s)"/><ellipse cx="84" cy="86" rx="8" ry="5" fill="#e2706a" opacity=".2" filter="url(#m41s)"/></g><path d="M43 104 L55 121 L49 126 L37 107 Z" fill="#82653b" stroke="#303337" stroke-width="2.6" stroke-linejoin="round"/><path d="M77 104 L65 121 L71 126 L83 107 Z" fill="#634d2d" stroke="#303337" stroke-width="2.6" stroke-linejoin="round"/><circle cx="60" cy="123" r="8.5" fill="url(#m41st)" stroke="#303337" stroke-width="2"/><path d="M60.0 118.0L61.2 121.3L64.8 121.5L62.0 123.6L62.9 127.0L60.0 125.1L57.1 127.0L58.0 123.6L55.2 121.5L58.8 121.3Z" fill="#976815" opacity=".65"/><circle cx="57" cy="120" r="2.2" fill="#ffffff" opacity=".8"/></g></g></g></svg>