<svg viewBox="0 0 120 132" width="96" height="106" fill="none" xmlns="http://www.w3.org/2000/svg" role="img" aria-label="Robot"><defs><linearGradient id="m13b" x1="0" y1="0" x2="0" y2="1"><stop offset="0" stop-color="#f5f7fa"/><stop offset="1" stop-color="#d0d3d6"/></linearGradient><radialGradient id="m13e" cx="0.42" cy="0.36" r="0.75"><stop offset="0" stop-color="#ffffff"/><stop offset="0.34" stop-color="#59e9ff"/><stop offset="1" stop-color="#18a2b8"/></radialGradient><radialGradient id="m13ey" cx="0.42" cy="0.36" r="0.75"><stop offset="0" stop-color="#ffffff"/><stop offset="0.34" stop-color="#59e9ff"/><stop offset="1" stop-color="#18a2b8"/></radialGradient><filter id="m13g" x="-40%" y="-40%" width="180%" height="180%"><feGaussianBlur stdDeviation="2.2" result="b"/><feMerge><feMergeNode in="b"/><feMergeNode in="SourceGraphic"/></feMerge></filter><linearGradient id="m13m" x1="0" y1="0" x2="1" y2="0"><stop offset="0" stop-color="#f6f8fb"/><stop offset="0.45" stop-color="#f2f5f9"/><stop offset="1" stop-color="#b3b5b8"/></linearGradient><radialGradient id="m13c" cx="0.5" cy="0.42" r="0.62"><stop offset="0" stop-color="#ffffff"/><stop offset="0.38" stop-color="#64eaff"/><stop offset="1" stop-color="#148394"/></radialGradient><linearGradient id="m13sh" x1="0.2" y1="0" x2="0.8" y2="1"><stop offset="0" stop-color="#f7f9fc"/><stop offset="0.55" stop-color="#f2f5f9"/><stop offset="1" stop-color="#c2c4c7"/></linearGradient><radialGradient id="m13v" cx="0.5" cy="0.34" r="0.85"><stop offset="0" stop-color="#194c5c"/><stop offset="1" stop-color="#0d1720"/></radialGradient><filter id="m13s" x="-50%" y="-50%" width="200%" height="200%"><feGaussianBlur stdDeviation="4"/></filter><clipPath id="m13ch"><path d="M19 76 C19 40 35 22 60 22 C85 22 101 40 101 76 L101 92 Q101 110 83 110 L37 110 Q19 110 19 92 Z"/></clipPath><clipPath id="m13cf"><ellipse cx="60" cy="68" rx="37" ry="41"/></clipPath><linearGradient id="m13hr" x1="0.25" y1="0" x2="0.75" y2="1"><stop offset="0" stop-color="#64eaff"/><stop offset="0.5" stop-color="#22E1FF"/><stop offset="1" stop-color="#1799ad"/></linearGradient><radialGradient id="m13st" cx="0.38" cy="0.3" r="0.78"><stop offset="0" stop-color="#fffdf2"/><stop offset="0.45" stop-color="#ffd873"/><stop offset="1" stop-color="#e8a020"/></radialGradient></defs><line x1="60.0" y1="24" x2="60.0" y2="13.0" stroke="#313942" stroke-width="4" stroke-linecap="round"/><circle cx="60.0" cy="10.0" r="7" fill="url(#m13e)" stroke="#313942" stroke-width="2.2" filter="url(#m13g)"/><path d="M19 57 C3 55 3 85 19 83 Z" fill="url(#m13sh)" stroke="#313942" stroke-width="2.6" stroke-linejoin="round"/><path d="M15 62 C8 62 8 72 10 76" fill="none" stroke="#ffffff" stroke-width="3" opacity=".4" stroke-linecap="round"/><circle cx="106" cy="70" r="13.5" fill="url(#m13sh)" stroke="#313942" stroke-width="2.6"/><circle cx="106" cy="70" r="10" fill="#33393f" stroke="#313942" stroke-width="1.8"/><circle cx="106" cy="70" r="6.4" fill="url(#m13e)" filter="url(#m13g)"/><circle cx="103.8" cy="67.4" r="2.2" fill="#ffffff" opacity=".9"/><path data-shape="head" fill="url(#m13sh)" stroke="#313942" stroke-width="2.8" d="M19 76 C19 40 35 22 60 22 C85 22 101 40 101 76 L101 92 Q101 110 83 110 L37 110 Q19 110 19 92 Z"/><g clip-path="url(#m13ch)"><ellipse cx="96" cy="108" rx="46" ry="30" fill="#797b7d" opacity=".34" filter="url(#m13s)"/></g><g clip-path="url(#m13ch)"><ellipse cx="46" cy="36" rx="25" ry="12" fill="#ffffff" opacity=".5" filter="url(#m13s)"/></g><path d="M28 62 Q30 38 48 28" stroke="#ffffff" stroke-width="3.4" fill="none" opacity=".55" stroke-linecap="round"/><path d="M44 37 C48 24 72 24 76 37 C69 30 51 30 44 37 Z" fill="#8fd4f7" stroke="#313942" stroke-width="2.2" stroke-linejoin="round"/><path d="M44 37 C48 24 72 24 76 37 C69 30 51 30 44 37 Z" fill="#ffffff" opacity=".18"/><rect x="25" y="40" width="70" height="56" rx="26" fill="url(#m13v)" stroke="#2c333b" stroke-width="2.4"/><rect x="29" y="44" width="62" height="21" rx="16" fill="#ffffff" opacity=".07"/><ellipse cx="47" cy="67" rx="8.5" ry="12.5" fill="url(#m13ey)" filter="url(#m13g)"/><circle cx="44.5" cy="64.0" r="2.6" fill="#ffffff"/><ellipse cx="73" cy="67" rx="8.5" ry="12.5" fill="url(#m13ey)" filter="url(#m13g)"/><circle cx="70.5" cy="64.0" r="2.6" fill="#ffffff"/><path d="M51 83 Q60 90 69 83" stroke="#22E1FF" stroke-width="4" fill="none" stroke-linecap="round"/><path d="M50 108 L60 114 L70 108 L70 118 L60 114 L50 118 Z" fill="#8fd4f7" stroke="#313942" stroke-width="2"/></svg>